<svg width="1340" height="492" viewBox="0 0 1340 492" fill="none" xmlns="http://www.w3.org/2000/svg">
<rect width="1340" height="492" fill="#040404"/>
<path d="M76.5376 224.18C79.8969 224.152 83.1463 224.589 86.2232 225.42L86.2261 225.413L142.297 237.873C141.886 241.967 141.675 246.122 141.675 250.325C141.675 259.057 142.587 267.575 144.317 275.793L86.9556 289.524C84.8131 290.165 82.5817 290.613 80.2837 290.845L80.0962 290.889V290.862C79.0483 290.962 77.9869 291.021 76.9136 291.03C57.7356 291.189 42.1046 276.353 42.0005 257.893C41.8967 239.433 57.3595 224.339 76.5376 224.18Z" fill="#219ECF"/>
<path d="M71.6822 153.652C80.553 138.635 98.7364 133.057 112.295 141.193C114.67 142.618 116.743 144.372 118.503 146.373L118.509 146.368L158.781 187.712C153.637 196.393 149.532 205.761 146.633 215.645L87.9605 198.68C86.1438 198.277 84.3584 197.678 82.6304 196.877L82.4771 196.832L82.4898 196.81C81.7045 196.44 80.9302 196.029 80.1714 195.574C66.6126 187.438 62.8115 168.669 71.6822 153.652Z" fill="#219ECF"/>
<path d="M153.942 88.3716C167.858 82.2858 184.294 89.0568 190.655 103.495C191.769 106.024 192.497 108.621 192.87 111.216H192.876L199.491 145.999C189.248 152.412 180.019 160.292 172.094 169.344L144.667 132.631C143.485 131.221 142.421 129.682 141.498 128.021L141.403 127.894L141.423 127.884C141.007 127.125 140.617 126.343 140.261 125.535C133.901 111.096 140.026 94.4578 153.942 88.3716Z" fill="#219ECF"/>
<path d="M223.281 107.671C224.796 92.0657 238.276 80.6315 253.39 82.1324C268.504 83.6334 279.529 97.5012 278.014 113.107C277.749 115.841 277.113 118.445 276.168 120.876L276.173 120.877L273.885 127.665C270.845 127.44 267.773 127.325 264.675 127.325C251.154 127.325 238.142 129.508 225.972 133.539L223.651 115.965C223.31 114.168 223.136 112.316 223.143 110.427L223.123 110.271L223.145 110.274C223.153 109.413 223.196 108.545 223.281 107.671Z" fill="#219ECF"/>
<path d="M189.933 348.019C200.389 356.03 212.169 362.399 224.888 366.744L222.931 393.617H222.925C222.853 396.238 222.428 398.902 221.612 401.542C216.954 416.616 201.405 425.232 186.882 420.786C172.358 416.34 164.36 400.516 169.018 385.442C169.279 384.599 169.576 383.777 169.903 382.975L169.882 382.968L169.961 382.83C170.687 381.075 171.567 379.422 172.578 377.886L189.933 348.019Z" fill="#219ECF"/>
<path d="M150.539 296.254C154.649 306.457 160.086 315.982 166.639 324.615L134.071 366.836L134.065 366.832C132.547 369.022 130.689 371.002 128.494 372.69C115.96 382.331 97.2562 378.881 86.7177 364.983C76.1796 351.086 77.7975 332.005 90.3309 322.364C91.0323 321.825 91.7546 321.328 92.4921 320.87L92.4764 320.85L92.6239 320.787C94.2481 319.792 95.9527 318.992 97.7108 318.383L150.539 296.254Z" fill="#219ECF"/>
<path d="M278.104 140.324C312.05 140.324 342.418 155.652 362.675 179.768L321.114 191.035C309.015 182.305 294.161 177.157 278.104 177.157C237.446 177.157 204.484 210.139 204.484 250.824C204.484 291.509 237.446 324.491 278.104 324.491C292.656 324.491 306.218 320.263 317.638 312.973V278.449H263.38V241.616H353.564V242.315H354.447V330.716H354.382L354.384 330.723C334.559 349.679 307.691 361.324 278.104 361.324C217.116 361.324 167.675 311.852 167.675 250.824C167.675 189.797 217.116 140.324 278.104 140.324Z" fill="#FEFEFE"/>
<path d="M454.193 364.196C438.213 364.196 424.364 360.68 412.645 353.649C400.926 346.618 391.835 336.781 385.372 324.139C378.98 311.497 375.784 296.724 375.784 279.821C375.784 262.918 378.98 248.109 385.372 235.396C391.835 222.683 400.926 212.811 412.645 205.78C424.364 198.749 438.213 195.233 454.193 195.233C470.173 195.233 484.023 198.749 495.741 205.78C507.46 212.811 516.516 222.683 522.908 235.396C529.371 248.109 532.602 262.918 532.602 279.821C532.602 296.724 529.371 311.497 522.908 324.139C516.516 336.781 507.46 346.618 495.741 353.649C484.023 360.68 470.173 364.196 454.193 364.196ZM454.406 333.301C463.071 333.301 470.315 330.922 476.139 326.163C481.963 321.334 486.295 314.871 489.136 306.774C492.048 298.678 493.504 289.658 493.504 279.714C493.504 269.7 492.048 260.645 489.136 252.548C486.295 244.381 481.963 237.882 476.139 233.053C470.315 228.223 463.071 225.808 454.406 225.808C445.528 225.808 438.142 228.223 432.247 233.053C426.423 237.882 422.055 244.381 419.143 252.548C416.303 260.645 414.882 269.7 414.882 279.714C414.882 289.658 416.303 298.678 419.143 306.774C422.055 314.871 426.423 321.334 432.247 326.163C438.142 330.922 445.528 333.301 454.406 333.301ZM561.654 361V171.909H601.633V249.928H682.791V171.909H722.677V361H682.791V282.889H601.633V361H561.654ZM748.177 204.871V171.909H903.475V204.871H845.585V361H806.067V204.871H748.177ZM928.79 171.909H978.094L1030.17 298.955H1032.38L1084.46 171.909H1133.76V361H1094.98V237.925H1093.41L1044.48 360.077H1018.07L969.138 237.463H967.569V361H928.79V171.909ZM1166.44 361V171.909H1206.42V328.038H1287.48V361H1166.44Z" fill="#FEFEFE"/>
</svg>
